<svg width="21" height="16" viewBox="0 0 21 16" fill="none" xmlns="http://www.w3.org/2000/svg">
<g clip-path="url(#clip0_57310_158894)">
<path d="M0 3.5C0 1.84315 1.34315 0.5 3 0.5H18C19.6569 0.5 21 1.84315 21 3.5V12.5C21 14.1569 19.6569 15.5 18 15.5H3C1.34315 15.5 0 14.1569 0 12.5V3.5Z" fill="#1A47B8"/>
<path fill-rule="evenodd" clip-rule="evenodd" d="M0 10.5H21V15.5H0V10.5Z" fill="#F93939"/>
<path fill-rule="evenodd" clip-rule="evenodd" d="M0 0.5H21V5.5H0V0.5Z" fill="white"/>
</g>
<defs>
<clipPath id="clip0_57310_158894">
<path d="M0 3.5C0 1.84315 1.34315 0.5 3 0.5H18C19.6569 0.5 21 1.84315 21 3.5V12.5C21 14.1569 19.6569 15.5 18 15.5H3C1.34315 15.5 0 14.1569 0 12.5V3.5Z" fill="white"/>
</clipPath>
</defs>
</svg>
