<svg width="21" height="16" viewBox="0 0 21 16" fill="none" xmlns="http://www.w3.org/2000/svg">
<g clip-path="url(#clip0_57310_158852)">
<path d="M0 3.5C0 1.84315 1.34315 0.5 3 0.5H18C19.6569 0.5 21 1.84315 21 3.5V12.5C21 14.1569 19.6569 15.5 18 15.5H3C1.34315 15.5 0 14.1569 0 12.5V3.5Z" fill="#FFDA2C"/>
<path fill-rule="evenodd" clip-rule="evenodd" d="M8 5.5H13V10.5H8V5.5ZM8 10.5L10.5 12.5L13 10.5H8ZM10 4.5H11V5.5H10V4.5Z" fill="#AE6A3E"/>
<path fill-rule="evenodd" clip-rule="evenodd" d="M9 8.5H12V10H9V8.5ZM9 10L10.5 11L12 10H9Z" fill="#1A47B8"/>
<path fill-rule="evenodd" clip-rule="evenodd" d="M9 6.5H12V8.5H9V6.5Z" fill="#AF010D"/>
<path fill-rule="evenodd" clip-rule="evenodd" d="M10.5 7.5C10.776 7.5 11 7.714 11 8.005V8.995C11 9.275 10.768 9.5 10.5 9.5C10.224 9.5 10 9.286 10 8.995V8.005C10 7.725 10.232 7.5 10.5 7.5Z" fill="#FFDA2C"/>
<path fill-rule="evenodd" clip-rule="evenodd" d="M14 0.5H21V15.5H14V0.5Z" fill="#AF010D"/>
<path fill-rule="evenodd" clip-rule="evenodd" d="M0 0.5H7V15.5H0V0.5Z" fill="#1A47B8"/>
</g>
<defs>
<clipPath id="clip0_57310_158852">
<path d="M0 3.5C0 1.84315 1.34315 0.5 3 0.5H18C19.6569 0.5 21 1.84315 21 3.5V12.5C21 14.1569 19.6569 15.5 18 15.5H3C1.34315 15.5 0 14.1569 0 12.5V3.5Z" fill="white"/>
</clipPath>
</defs>
</svg>
