<svg width="24" height="24" viewBox="0 0 24 24" fill="none" xmlns="http://www.w3.org/2000/svg">
<path d="M22.0832 11.3955C21.2593 9.65972 20.2788 8.24409 19.1418 7.14862L17.9493 8.34112C18.9217 9.27042 19.7687 10.4861 20.5012 12.0002C18.5512 16.0361 15.7832 17.9533 12.0004 17.9533C10.8649 17.9533 9.81905 17.7785 8.8628 17.4288L7.57069 18.7209C8.89882 19.3342 10.3754 19.6408 12.0004 19.6408C16.5051 19.6408 19.866 17.2947 22.0832 12.6025C22.1723 12.4138 22.2186 12.2077 22.2186 11.999C22.2186 11.7903 22.1723 11.5842 22.0832 11.3955ZM20.5933 3.8805L19.5941 2.88019C19.5767 2.86275 19.556 2.84892 19.5333 2.83949C19.5105 2.83005 19.4861 2.8252 19.4615 2.8252C19.4368 2.8252 19.4124 2.83005 19.3897 2.83949C19.3669 2.84892 19.3462 2.86275 19.3288 2.88019L16.7655 5.44237C15.3522 4.7205 13.7638 4.35956 12.0004 4.35956C7.49569 4.35956 4.13475 6.70566 1.91757 11.3978C1.82845 11.5866 1.78223 11.7927 1.78223 12.0014C1.78223 12.2101 1.82845 12.4162 1.91757 12.6049C2.80335 14.4705 3.86975 15.9659 5.11679 17.091L2.63663 19.5705C2.60149 19.6057 2.58176 19.6533 2.58176 19.703C2.58176 19.7527 2.60149 19.8004 2.63663 19.8356L3.63718 20.8361C3.67234 20.8713 3.72001 20.891 3.76972 20.891C3.81942 20.891 3.86709 20.8713 3.90225 20.8361L20.5933 4.14581C20.6107 4.1284 20.6245 4.10772 20.634 4.08496C20.6434 4.06219 20.6483 4.0378 20.6483 4.01316C20.6483 3.98852 20.6434 3.96412 20.634 3.94135C20.6245 3.91859 20.6107 3.89791 20.5933 3.8805ZM3.4996 12.0002C5.45194 7.96425 8.21991 6.04706 12.0004 6.04706C13.2787 6.04706 14.4409 6.26644 15.4954 6.71245L13.8477 8.36011C13.0674 7.94377 12.174 7.78926 11.2991 7.91936C10.4243 8.04946 9.6145 8.45728 8.98911 9.08267C8.36372 9.70806 7.9559 10.5179 7.8258 11.3927C7.6957 12.2675 7.85021 13.161 8.26655 13.9413L6.31139 15.8964C5.22929 14.9414 4.29647 13.6474 3.4996 12.0002ZM9.28163 12.0002C9.28204 11.5869 9.37993 11.1795 9.56736 10.8112C9.75478 10.4429 10.0265 10.1239 10.3603 9.88029C10.6941 9.63666 11.0807 9.47522 11.4887 9.40908C11.8967 9.34294 12.3145 9.37397 12.7082 9.49964L9.40608 12.8018C9.32332 12.5426 9.28133 12.2722 9.28163 12.0002Z" fill="#98A1B3"/>
<path d="M11.9069 14.6252C11.8258 14.6252 11.7459 14.6214 11.6667 14.6142L10.4287 15.8521C11.1733 16.1373 11.9845 16.2007 12.7644 16.0346C13.5442 15.8685 14.2592 15.4801 14.823 14.9163C15.3868 14.3525 15.7752 13.6375 15.9413 12.8576C16.1074 12.0778 16.044 11.2666 15.7589 10.522L14.5209 11.7599C14.5282 11.8392 14.5319 11.9191 14.5319 12.0002C14.5321 12.3449 14.4643 12.6864 14.3325 13.0049C14.2006 13.3235 14.0073 13.613 13.7635 13.8567C13.5197 14.1005 13.2302 14.2939 12.9117 14.4257C12.5931 14.5576 12.2517 14.6254 11.9069 14.6252Z" fill="#98A1B3"/>
</svg>
