<svg width="124" height="24" viewBox="0 0 124 24" fill="none" xmlns="http://www.w3.org/2000/svg">
<path d="M0 12C0 5.37258 5.37258 0 12 0C18.6274 0 24 5.37258 24 12C24 18.6274 18.6274 24 12 24C5.37258 24 0 18.6274 0 12Z" fill="#EF1C31"/>
<path d="M14.375 9.06923C14.375 9.9731 13.6521 10.7058 12.7603 10.7058C11.8685 10.7058 11.1455 9.9731 11.1455 9.06923C11.1455 8.16536 11.8685 7.43262 12.7603 7.43262C13.6521 7.43262 14.375 8.16536 14.375 9.06923Z" fill="white"/>
<path d="M8.10171 10.9946C7.5565 10.9075 7.29319 11.6382 7.76866 11.9189L9.96031 13.2126L4.88039 19.9598C4.65831 20.2547 5.06167 20.6124 5.3279 20.3566L12.6294 13.341C13.2247 12.769 12.9096 11.7627 12.0943 11.6325L8.10171 10.9946Z" fill="white"/>
<path d="M12.2837 14.8042L10.5774 16.4458L11.7292 17.9871L9.83736 19.0907C9.53126 19.2692 9.73335 19.7377 10.0733 19.6376L13.3697 18.6667C14.0245 18.4738 14.2979 17.6961 13.9078 17.1359L12.2837 14.8042Z" fill="white"/>
<path d="M15.0487 4.27933C14.9622 4.52558 15.0805 4.79547 15.3131 4.91375C16.1242 5.32611 16.879 5.87467 17.5423 6.56343C17.9208 6.95987 18.2492 7.37823 18.5357 7.81024C18.6879 8.03976 18.9921 8.11966 19.2297 7.98039L21.4951 6.65231C21.739 6.50932 21.8168 6.19204 21.6551 5.96013C21.4662 5.68925 21.2612 5.42026 21.0401 5.15674C19.789 3.65925 18.3931 2.38093 16.505 1.62609C16.2504 1.52433 15.9675 1.66286 15.8766 1.92151L15.0487 4.27933Z" fill="white"/>
<path d="M3.00662 7.26598C3.20963 7.41921 3.49458 7.39495 3.67787 7.21863C4.70443 6.23109 6.17783 5.19372 7.27379 4.7088C7.31531 4.6908 7.35733 4.67281 7.39975 4.65491C7.67364 4.53939 7.80694 4.21889 7.67928 3.95044L7.05939 2.64695C6.93739 2.39041 6.62573 2.28595 6.38121 2.43056C4.9444 3.28024 3.91312 4.35348 3.17528 5.31623C2.91952 5.65225 2.69043 5.98827 2.48315 6.32678C2.3524 6.54029 2.41086 6.81631 2.6107 6.96715L3.00662 7.26598Z" fill="white"/>
<path d="M15.0754 1.743C15.1734 1.4649 15.0108 1.1619 14.7212 1.10653C14.1506 0.997455 13.5388 0.930461 12.8804 0.9111C10.9768 0.842848 9.38516 1.13887 8.05698 1.63264C7.79092 1.73156 7.67555 2.0388 7.79733 2.2952L8.53723 3.85304C8.63946 4.06829 8.87911 4.18011 9.11251 4.13207C10.5827 3.82952 12.1655 3.86158 13.6604 4.2767C13.9239 4.34987 14.2049 4.21418 14.2957 3.95625L15.0754 1.743Z" fill="white"/>
<path d="M2.80775 8.19261C2.82047 8.17749 2.81355 8.15381 2.79781 8.14188L2.37295 7.81986C2.11927 7.62759 1.75204 7.719 1.6326 8.01405C0.24663 11.4378 0.842359 14.5944 0.941093 15.0551C0.948629 15.0903 0.979321 15.1128 1.01529 15.1128C1.06449 15.1128 1.10198 15.068 1.09433 15.0194C1.0029 14.4386 0.626728 11.245 2.80427 8.19702C2.8055 8.19529 2.80639 8.19424 2.80775 8.19261Z" fill="white"/>
<path d="M19.5851 8.73442C19.3605 8.86616 19.2759 9.14823 19.3788 9.38744C20.2879 11.501 20.4089 13.6115 20.4097 14.5734C20.41 14.8644 20.6434 15.1123 20.9344 15.1123H23.2206C23.456 15.1123 23.6578 14.9477 23.6902 14.7146C23.8372 13.6588 24.0696 10.6545 22.5951 7.57158C22.4727 7.31551 22.1562 7.22644 21.9113 7.37005L19.5851 8.73442Z" fill="white"/>
<path d="M37.6932 20.3068C36.8636 20.3068 36.1108 20.1506 35.4347 19.8381C34.7585 19.5199 34.2216 19.0625 33.8239 18.4659C33.4261 17.8636 33.2273 17.1364 33.2273 16.2841C33.2273 15.5341 33.375 14.9261 33.6705 14.4602C33.9659 13.9886 34.3608 13.6193 34.8551 13.3523C35.3494 13.0852 35.8949 12.8864 36.4915 12.7557C37.0938 12.6193 37.6989 12.5114 38.3068 12.4318C39.1023 12.3295 39.7472 12.2528 40.2415 12.2017C40.7415 12.1449 41.1051 12.0511 41.3324 11.9205C41.5653 11.7898 41.6818 11.5625 41.6818 11.2386V11.1705C41.6818 10.3295 41.4517 9.67614 40.9915 9.21023C40.5369 8.74432 39.8466 8.51136 38.9205 8.51136C37.9602 8.51136 37.2074 8.72159 36.6619 9.14205C36.1165 9.5625 35.733 10.0114 35.5114 10.4886L33.6023 9.80682C33.9432 9.01136 34.3977 8.39205 34.9659 7.94886C35.5398 7.5 36.1648 7.1875 36.8409 7.01136C37.5227 6.82955 38.1932 6.73864 38.8523 6.73864C39.2727 6.73864 39.7557 6.78977 40.3011 6.89204C40.8523 6.98864 41.3835 7.19034 41.8949 7.49716C42.4119 7.80398 42.8409 8.26705 43.1818 8.88636C43.5227 9.50568 43.6932 10.3352 43.6932 11.375V20H41.6818V18.2273H41.5795C41.4432 18.5114 41.2159 18.8153 40.8977 19.1392C40.5795 19.4631 40.1563 19.7386 39.6278 19.9659C39.0994 20.1932 38.4545 20.3068 37.6932 20.3068ZM38 18.5C38.7955 18.5 39.4659 18.3438 40.0114 18.0312C40.5625 17.7188 40.9773 17.3153 41.2557 16.821C41.5398 16.3267 41.6818 15.8068 41.6818 15.2614V13.4205C41.5966 13.5227 41.4091 13.6165 41.1193 13.7017C40.8352 13.7812 40.5057 13.8523 40.1307 13.9148C39.7614 13.9716 39.4006 14.0227 39.0483 14.0682C38.7017 14.108 38.4205 14.142 38.2045 14.1705C37.6818 14.2386 37.1932 14.3494 36.7386 14.5028C36.2898 14.6506 35.9261 14.875 35.6477 15.1761C35.375 15.4716 35.2386 15.875 35.2386 16.3864C35.2386 17.0852 35.4972 17.6136 36.0142 17.9716C36.5369 18.3239 37.1989 18.5 38 18.5ZM53.0575 6.90909V8.61364H46.2734V6.90909H53.0575ZM48.2507 3.77273H50.2621V16.25C50.2621 16.8182 50.3445 17.2443 50.5092 17.5284C50.6797 17.8068 50.8956 17.9943 51.157 18.0909C51.424 18.1818 51.7053 18.2273 52.0007 18.2273C52.2223 18.2273 52.4041 18.2159 52.5462 18.1932C52.6882 18.1648 52.8018 18.142 52.8871 18.125L53.2962 19.9318C53.1598 19.983 52.9695 20.0341 52.7251 20.0852C52.4808 20.142 52.1712 20.1705 51.7962 20.1705C51.228 20.1705 50.6712 20.0483 50.1257 19.804C49.5859 19.5597 49.1371 19.1875 48.7791 18.6875C48.4268 18.1875 48.2507 17.5568 48.2507 16.7955V3.77273ZM63.1143 11.5795V13.4545H55.478V11.5795H63.1143Z" fill="#232056"/>
<path d="M69.0312 20L65.4688 6.90909H69.142L71.1705 15.7045H71.2898L73.4034 6.90909H77.0085L79.1562 15.6534H79.267L81.2614 6.90909H84.9261L81.3722 20H77.5284L75.2784 11.767H75.1165L72.8665 20H69.0312ZM92.4496 20.2557C91.1257 20.2557 89.9808 19.9744 89.0149 19.4119C88.0547 18.8437 87.3132 18.054 86.7905 17.0426C86.2678 16.0256 86.0064 14.8466 86.0064 13.5057C86.0064 12.1534 86.2678 10.9716 86.7905 9.96023C87.3132 8.94318 88.0547 8.15341 89.0149 7.59091C89.9808 7.02273 91.1257 6.73864 92.4496 6.73864C93.7734 6.73864 94.9155 7.02273 95.8757 7.59091C96.8416 8.15341 97.5859 8.94318 98.1087 9.96023C98.6314 10.9716 98.8928 12.1534 98.8928 13.5057C98.8928 14.8466 98.6314 16.0256 98.1087 17.0426C97.5859 18.054 96.8416 18.8437 95.8757 19.4119C94.9155 19.9744 93.7734 20.2557 92.4496 20.2557ZM92.4666 17.4432C93.0689 17.4432 93.5717 17.2727 93.9751 16.9318C94.3786 16.5852 94.6825 16.1136 94.8871 15.517C95.0973 14.9205 95.2024 14.2415 95.2024 13.4801C95.2024 12.7188 95.0973 12.0398 94.8871 11.4432C94.6825 10.8466 94.3786 10.375 93.9751 10.0284C93.5717 9.68182 93.0689 9.50852 92.4666 9.50852C91.8587 9.50852 91.3473 9.68182 90.9325 10.0284C90.5234 10.375 90.2138 10.8466 90.0036 11.4432C89.799 12.0398 89.6967 12.7188 89.6967 13.4801C89.6967 14.2415 89.799 14.9205 90.0036 15.517C90.2138 16.1136 90.5234 16.5852 90.9325 16.9318C91.3473 17.2727 91.8587 17.4432 92.4666 17.4432ZM101.254 20V6.90909H104.773V9.19318H104.91C105.148 8.38068 105.549 7.76705 106.112 7.35227C106.674 6.93182 107.322 6.72159 108.055 6.72159C108.237 6.72159 108.433 6.73295 108.643 6.75568C108.853 6.77841 109.038 6.80966 109.197 6.84943V10.071C109.026 10.0199 108.79 9.97443 108.489 9.93466C108.188 9.89489 107.913 9.875 107.663 9.875C107.129 9.875 106.651 9.99148 106.231 10.2244C105.816 10.4517 105.487 10.7699 105.242 11.179C105.004 11.5881 104.884 12.0597 104.884 12.5938V20H101.254ZM114.364 16.233L114.372 11.8778H114.901L119.094 6.90909H123.261L117.628 13.4886H116.767L114.364 16.233ZM111.074 20V2.54545H114.705V20H111.074ZM119.256 20L115.403 14.2983L117.824 11.733L123.509 20H119.256Z" fill="#232056"/>
</svg>
