<svg width="24" height="24" viewBox="0 0 24 24" fill="none" xmlns="http://www.w3.org/2000/svg">
<path fill-rule="evenodd" clip-rule="evenodd" d="M19.7588 11.744C19.7588 11.1377 19.7044 10.5548 19.6033 9.99512H11.5508V13.3024H16.1522C15.954 14.3712 15.3516 15.2767 14.4461 15.883V18.0282H17.2093C18.8261 16.5398 19.7588 14.3478 19.7588 11.744Z" fill="#4285F4"/>
<path fill-rule="evenodd" clip-rule="evenodd" d="M11.5507 20.1003C13.8592 20.1003 15.7947 19.3347 17.2093 18.0289L14.4461 15.8836C13.6805 16.3966 12.7011 16.6997 11.5507 16.6997C9.32386 16.6997 7.43897 15.1957 6.76663 13.1748H3.91016V15.39C5.31702 18.1843 8.20847 20.1003 11.5507 20.1003Z" fill="#34A853"/>
<path fill-rule="evenodd" clip-rule="evenodd" d="M6.76589 13.1742C6.59489 12.6612 6.49773 12.1132 6.49773 11.5497C6.49773 10.9862 6.59489 10.4382 6.76589 9.92519V7.70996H3.90941C3.33034 8.86421 3 10.17 3 11.5497C3 12.9293 3.33034 14.2352 3.90941 15.3894L6.76589 13.1742Z" fill="#FBBC05"/>
<path fill-rule="evenodd" clip-rule="evenodd" d="M11.5507 6.40057C12.806 6.40057 13.9331 6.83195 14.8192 7.67918L17.2715 5.22689C15.7908 3.84723 13.8554 3 11.5507 3C8.20847 3 5.31702 4.91598 3.91016 7.71027L6.76663 9.9255C7.43897 7.90459 9.32386 6.40057 11.5507 6.40057Z" fill="#EA4335"/>
</svg>
