<svg width="24" height="24" viewBox="0 0 24 24" fill="none" xmlns="http://www.w3.org/2000/svg">
<path d="M12.6696 6.78671C13.3881 6.78671 14.2889 6.28599 14.8253 5.61836C15.3111 5.01332 15.6653 4.16835 15.6653 3.32338C15.6653 3.20863 15.6552 3.09389 15.6349 3C14.8354 3.0313 13.8739 3.55288 13.2971 4.25181C12.8416 4.78382 12.4267 5.61836 12.4267 6.47376C12.4267 6.59894 12.4469 6.72412 12.457 6.76585C12.5076 6.77628 12.5886 6.78671 12.6696 6.78671ZM10.1394 19.4091C11.1211 19.4091 11.5563 18.731 12.7809 18.731C14.0257 18.731 14.299 19.3882 15.392 19.3882C16.4648 19.3882 17.1834 18.3659 17.8615 17.3645C18.6206 16.217 18.9343 15.0904 18.9545 15.0382C18.8837 15.0173 16.8292 14.1515 16.8292 11.7209C16.8292 9.61371 18.4485 8.66442 18.5396 8.5914C17.4668 7.00578 15.8374 6.96405 15.392 6.96405C14.1877 6.96405 13.206 7.71514 12.5886 7.71514C11.9206 7.71514 11.0401 7.00578 9.99769 7.00578C8.01403 7.00578 6 8.69572 6 11.8878C6 13.8698 6.74893 15.9666 7.66992 17.3227C8.45934 18.4702 9.14755 19.4091 10.1394 19.4091Z" fill="white"/>
</svg>
